<svg xmlns="http://www.w3.org/2000/svg" xmlns:xlink="http://www.w3.org/1999/xlink" width="500" zoomAndPan="magnify" viewBox="0 0 375 374.999991" height="500" preserveAspectRatio="xMidYMid meet" version="1.0"><defs><g/><clipPath id="id1"><path d="M 21 143 L 99 143 L 99 220 L 21 220 Z M 21 143 " clip-rule="nonzero"/></clipPath><clipPath id="id2"><path d="M 21.457031 163.078125 L 66.214844 143.765625 L 98.605469 218.824219 L 53.847656 238.140625 Z M 21.457031 163.078125 " clip-rule="nonzero"/></clipPath><clipPath id="id3"><path d="M 8.070312 132.066406 L 101.035156 91.949219 L 146.796875 197.996094 L 53.835938 238.113281 Z M 8.070312 132.066406 " clip-rule="nonzero"/></clipPath><clipPath id="id4"><path d="M 33 138 L 99 138 L 99 219 L 33 219 Z M 33 138 " clip-rule="nonzero"/></clipPath><clipPath id="id5"><path d="M 33.621094 148.757812 L 81.320312 138.6875 L 98.203125 218.675781 L 50.503906 228.742188 Z M 33.621094 148.757812 " clip-rule="nonzero"/></clipPath><clipPath id="id6"><path d="M 26.644531 115.703125 L 125.710938 94.792969 L 149.566406 207.804688 L 50.5 228.714844 Z M 26.644531 115.703125 " clip-rule="nonzero"/></clipPath><clipPath id="id7"><path d="M 49.054688 137.089844 L 97.804688 137.089844 L 97.804688 218.8125 L 49.054688 218.8125 Z M 49.054688 137.089844 " clip-rule="nonzero"/></clipPath></defs><g clip-path="url(#id1)"><g clip-path="url(#id2)"><g clip-path="url(#id3)"><path fill="#f4f6fc" d="M 75.808594 161.261719 C 58.738281 155.191406 39.480469 155.238281 21.554688 162.976562 L 46.050781 219.738281 C 63.976562 212.003906 83.234375 211.957031 100.304688 218.027344 C 107.601562 201.445312 120.84375 187.464844 138.769531 179.726562 L 114.277344 122.964844 C 96.347656 130.699219 83.105469 144.679688 75.808594 161.261719 Z M 67.914062 142.96875 C 76.441406 139.289062 80.375 129.359375 76.6875 120.820312 C 73.003906 112.277344 63.078125 108.328125 54.554688 112.007812 C 46.027344 115.683594 42.09375 125.617188 45.78125 134.15625 C 49.464844 142.695312 59.390625 146.648438 67.914062 142.96875 Z M 67.914062 142.96875 " fill-opacity="1" fill-rule="nonzero"/></g></g></g><g clip-path="url(#id4)"><g clip-path="url(#id5)"><g clip-path="url(#id6)"><path fill="#233dff" d="M 87.257812 157.738281 C 71.726562 148.410156 52.84375 144.640625 33.738281 148.671875 L 46.507812 209.164062 C 65.609375 205.132812 84.496094 208.902344 100.027344 218.230469 C 110.460938 203.421875 126.214844 192.339844 145.316406 188.308594 L 132.546875 127.816406 C 113.445312 131.847656 97.691406 142.929688 87.257812 157.738281 Z M 83.144531 138.246094 C 92.226562 136.328125 98.050781 127.371094 96.128906 118.269531 C 94.207031 109.171875 85.265625 103.332031 76.179688 105.25 C 67.09375 107.167969 61.273438 116.121094 63.191406 125.222656 C 65.113281 134.324219 74.058594 140.164062 83.144531 138.246094 Z M 83.144531 138.246094 " fill-opacity="1" fill-rule="nonzero"/></g></g></g><g clip-path="url(#id7)"><path fill="#5cb6f9" d="M 99.679688 156.960938 C 86.410156 144.621094 68.707031 137.035156 49.183594 137.035156 L 49.183594 198.859375 C 68.707031 198.859375 86.410156 206.445312 99.679688 218.785156 C 112.945312 206.445312 130.648438 198.859375 150.171875 198.859375 L 150.171875 137.035156 C 130.648438 137.035156 112.945312 144.621094 99.679688 156.960938 Z M 99.679688 137.035156 C 108.964844 137.035156 116.507812 129.476562 116.507812 120.171875 C 116.507812 110.871094 108.964844 103.3125 99.679688 103.3125 C 90.394531 103.3125 82.847656 110.871094 82.847656 120.171875 C 82.847656 129.476562 90.394531 137.035156 99.679688 137.035156 Z M 99.679688 137.035156 " fill-opacity="1" fill-rule="nonzero"/></g><g fill="#f4f6fc" fill-opacity="1"><g transform="translate(111.592116, 198.178059)"><g><path d="M 3.207031 0 L 7.503906 0 L 7.503906 -18.621094 L 13.671875 -2.167969 L 18.007812 -2.167969 L 24.171875 -18.621094 L 24.171875 0 L 28.472656 0 L 28.472656 -24.894531 L 22.445312 -24.894531 L 15.839844 -7.1875 L 9.230469 -24.894531 L 3.207031 -24.894531 Z M 3.207031 0 "/></g></g></g><g fill="#f4f6fc" fill-opacity="1"><g transform="translate(143.268007, 198.178059)"><g><path d="M 3.542969 7.574219 L 8.226562 7.574219 L 18.289062 -17.601562 L 13.566406 -17.601562 L 9.054688 -5.375 L 4.617188 -17.601562 L -0.105469 -17.601562 L 6.78125 -0.476562 Z M 3.542969 7.574219 "/></g></g></g><g fill="#f4f6fc" fill-opacity="1"><g transform="translate(161.449053, 198.178059)"><g><path d="M 8.949219 0.351562 C 15.046875 0.351562 17.355469 -3.683594 17.355469 -8.984375 L 17.355469 -24.894531 L 3.507812 -24.894531 L 3.507812 -20.789062 L 12.878906 -20.789062 L 12.878906 -8.914062 C 12.878906 -5.671875 12.191406 -3.789062 8.949219 -3.789062 C 6.273438 -3.789062 5.128906 -5.8125 4.949219 -8.261719 L 0.546875 -7.753906 C 0.863281 -3.347656 3.859375 0.351562 8.949219 0.351562 Z M 8.949219 0.351562 "/></g></g></g><g fill="#f4f6fc" fill-opacity="1"><g transform="translate(181.515155, 198.178059)"><g><path d="M 9.917969 0.351562 C 15.363281 0.351562 18.941406 -3.859375 18.941406 -8.84375 C 18.941406 -13.8125 15.363281 -17.972656 9.917969 -17.972656 C 4.476562 -17.972656 0.898438 -13.8125 0.898438 -8.84375 C 0.898438 -3.859375 4.476562 0.351562 9.917969 0.351562 Z M 9.917969 -3.347656 C 6.675781 -3.347656 5.375 -5.957031 5.375 -8.84375 C 5.375 -11.734375 6.675781 -14.253906 9.917969 -14.253906 C 13.179688 -14.253906 14.464844 -11.734375 14.464844 -8.84375 C 14.464844 -5.957031 13.179688 -3.347656 9.917969 -3.347656 Z M 9.917969 -3.347656 "/></g></g></g><g fill="#f4f6fc" fill-opacity="1"><g transform="translate(201.387461, 198.178059)"><g><path d="M 12.050781 0.351562 C 16.929688 0.351562 19.59375 -3.929688 19.59375 -8.808594 C 19.59375 -13.707031 16.929688 -17.972656 11.980469 -17.972656 C 10.09375 -17.972656 8.261719 -17.355469 7.03125 -15.839844 L 7.03125 -24.894531 L 2.589844 -24.894531 L 2.589844 0 L 7.03125 0 L 7.03125 -1.761719 C 8.261719 -0.246094 10.21875 0.351562 12.050781 0.351562 Z M 10.976562 -3.613281 C 8.015625 -3.613281 6.640625 -5.847656 6.640625 -8.808594 C 6.640625 -11.769531 8.015625 -14.078125 10.976562 -14.078125 C 13.9375 -14.078125 15.257812 -11.734375 15.257812 -8.808594 C 15.257812 -5.882812 13.9375 -3.613281 10.976562 -3.613281 Z M 10.976562 -3.613281 "/></g></g></g><g fill="#f4f6fc" fill-opacity="1"><g transform="translate(222.105396, 198.178059)"><g><path d="M 8.15625 0 L 12.632812 0 L 12.632812 -20.894531 L 20.421875 -20.894531 L 20.421875 -24.894531 L 0.351562 -24.894531 L 0.351562 -20.894531 L 8.15625 -20.894531 Z M 8.15625 0 "/></g></g></g><g fill="#f4f6fc" fill-opacity="1"><g transform="translate(242.893801, 198.178059)"><g><path d="M 2.554688 0 L 6.710938 0 L 6.710938 -7.433594 C 6.710938 -11.910156 8.808594 -13.777344 10.816406 -13.777344 C 11.503906 -13.777344 12.15625 -13.566406 12.738281 -13.179688 L 14.695312 -16.703125 C 13.847656 -17.566406 12.632812 -17.972656 11.46875 -17.972656 C 9.496094 -17.972656 7.503906 -16.773438 6.746094 -14.640625 L 6.746094 -17.601562 L 2.554688 -17.601562 Z M 2.554688 0 "/></g></g></g><g fill="#f4f6fc" fill-opacity="1"><g transform="translate(257.251901, 198.178059)"><g><path d="M 7.363281 0.351562 C 9.460938 0.351562 11.328125 -0.316406 12.84375 -2.519531 L 13.125 0 L 16.667969 0 L 16.667969 -10.675781 C 16.667969 -14.976562 13.847656 -17.972656 9.054688 -17.972656 C 5.585938 -17.972656 3.347656 -16.421875 1.65625 -14.113281 L 4.949219 -11.734375 C 5.707031 -13.019531 7.066406 -14.21875 9.089844 -14.21875 C 11.363281 -14.21875 12.5625 -12.738281 12.5625 -10.5 L 7.980469 -10.5 C 4.035156 -10.5 0.96875 -9.230469 0.96875 -5.410156 C 0.96875 -1.726562 3.753906 0.351562 7.363281 0.351562 Z M 7.980469 -3.277344 C 6.308594 -3.277344 5.375 -4.105469 5.375 -5.269531 C 5.375 -6.378906 6.273438 -7.398438 8.226562 -7.398438 L 12.5625 -7.398438 C 12.492188 -5.199219 10.429688 -3.277344 7.980469 -3.277344 Z M 7.980469 -3.277344 "/></g></g></g><g fill="#f4f6fc" fill-opacity="1"><g transform="translate(275.943855, 198.178059)"><g><path d="M 9.53125 0.351562 C 13.019531 0.351562 15.769531 -1.585938 16.929688 -4.863281 L 13.019531 -6.34375 C 12.5625 -4.6875 11.222656 -3.542969 9.496094 -3.542969 C 6.5 -3.542969 5.375 -6.097656 5.375 -8.773438 C 5.375 -11.398438 6.535156 -14.078125 9.496094 -14.078125 C 11.257812 -14.078125 12.5625 -12.878906 13.019531 -11.1875 L 17.109375 -12.773438 C 15.769531 -16.28125 12.984375 -17.972656 9.496094 -17.972656 C 3.753906 -17.972656 1.003906 -13.390625 1.003906 -8.773438 C 1.003906 -4.105469 3.789062 0.351562 9.53125 0.351562 Z M 9.53125 0.351562 "/></g></g></g><g fill="#f4f6fc" fill-opacity="1"><g transform="translate(293.631616, 198.178059)"><g><path d="M 2.589844 0 L 6.890625 0 L 6.890625 -5.164062 L 9.601562 -8.15625 L 14.765625 0 L 19.839844 0 L 12.527344 -10.78125 L 19.117188 -17.601562 L 13.53125 -17.601562 L 6.890625 -10.289062 L 6.890625 -24.894531 L 2.589844 -24.894531 Z M 2.589844 0 "/></g></g></g><g fill="#f4f6fc" fill-opacity="1"><g transform="translate(313.327749, 198.178059)"><g><path d="M 9.882812 0.351562 C 12.84375 0.351562 15.1875 -0.6875 17.109375 -2.820312 L 14.148438 -5.410156 C 12.914062 -4.035156 11.503906 -3.542969 9.917969 -3.542969 C 7.152344 -3.542969 5.882812 -5.089844 5.515625 -7.398438 L 17.601562 -7.398438 C 17.6875 -7.648438 17.757812 -8.367188 17.757812 -9.089844 C 17.757812 -13.019531 15.769531 -17.972656 9.601562 -17.972656 C 3.648438 -17.972656 0.96875 -13.320312 0.96875 -8.738281 C 0.96875 -4 3.824219 0.351562 9.882812 0.351562 Z M 5.515625 -10.5 C 5.917969 -12.703125 7.03125 -14.359375 9.566406 -14.359375 C 11.804688 -14.359375 13.25 -13.019531 13.53125 -10.5 Z M 5.515625 -10.5 "/></g></g></g><g fill="#f4f6fc" fill-opacity="1"><g transform="translate(332.125407, 198.178059)"><g><path d="M 2.554688 0 L 6.710938 0 L 6.710938 -7.433594 C 6.710938 -11.910156 8.808594 -13.777344 10.816406 -13.777344 C 11.503906 -13.777344 12.15625 -13.566406 12.738281 -13.179688 L 14.695312 -16.703125 C 13.847656 -17.566406 12.632812 -17.972656 11.46875 -17.972656 C 9.496094 -17.972656 7.503906 -16.773438 6.746094 -14.640625 L 6.746094 -17.601562 L 2.554688 -17.601562 Z M 2.554688 0 "/></g></g></g></svg>